<?xml version="1.0" encoding="UTF-8" standalone="no"?>
<svg
   xmlns:dc="http://purl.org/dc/elements/1.1/"
   xmlns:cc="http://creativecommons.org/ns#"
   xmlns:rdf="http://www.w3.org/1999/02/22-rdf-syntax-ns#"
   xmlns:svg="http://www.w3.org/2000/svg"
   xmlns="http://www.w3.org/2000/svg"
   viewBox="0 0 1821.3333 1024"
   height="1024"
   width="1821.3333"
   xml:space="preserve"
   id="svg2"
   version="1.1"><metadata
     id="metadata8"><rdf:RDF><cc:Work
         rdf:about=""><dc:format>image/svg+xml</dc:format><dc:type
           rdf:resource="http://purl.org/dc/dcmitype/StillImage" /><dc:title></dc:title></cc:Work></rdf:RDF></metadata><defs
     id="defs6" /><g
     transform="matrix(1.3333333,0,0,-1.3333333,0,1024)"
     id="g10"><path
       id="m"
       style="fill:#00ffff;fill-opacity:1;fill-rule:nonzero;stroke:none;stroke-width:1.70367193"
       d="M 837.45253,596.95899 683.27022,425.52533 529.08791,596.95899 H 464.34837 V 171.04103 h 64.73954 v 330.28066 0.2317 l 111.22933,-123.7871 -46.4898,-51.69111 v -59.62852 h 32.36977 l 57.07301,63.5163 57.07301,-63.5163 H 772.713 v 59.62852 l -46.4898,51.69111 111.22933,123.7871 v -0.2317 -330.28066 h 64.73954 v 425.91796 z" /><path
       id="n"
       style="fill:#00ffff;fill-opacity:1;fill-rule:nonzero;stroke:none;stroke-width:1.70367193"
       d="M 379.19448,596.95899 V 266.67836 L 84.459317,596.95899 H 19.719782 V 171.04103 H 84.459317 V 501.32169 L 379.19448,171.04103 h 64.73971 v 425.91796 z" /><path
       id="s"
       style="fill:#00ffff;fill-opacity:1;fill-rule:nonzero;stroke:none;stroke-width:1.70367193"
       d="M 1346.2802,531.36765 H 1015.9995 L 1346.2802,236.6324 V 171.89287 H 920.36219 V 236.6324 H 1250.6429 L 920.36219,531.36765 v 64.7395 h 425.91801 z" /></g></svg>